<mxfile host="app.diagrams.net" modified="2024-06-17T13:25:54.050Z" agent="Mozilla/5.0 (Windows NT 10.0; Win64; x64; rv:127.0) Gecko/20100101 Firefox/127.0" etag="x7I1M_W10XpS1rBE4Mft" version="24.5.4" type="device">
  <diagram id="prtHgNgQTEPvFCAcTncT" name="Page-1">
    <mxGraphModel dx="2074" dy="1106" grid="1" gridSize="10" guides="1" tooltips="1" connect="1" arrows="1" fold="1" page="1" pageScale="1" pageWidth="827" pageHeight="1169" math="0" shadow="0">
      <root>
        <mxCell id="0" />
        <mxCell id="1" parent="0" />
        <mxCell id="hojOeQdqw5OnuqmnyD28-1" value="INGREDIENTES" style="rounded=0;whiteSpace=wrap;html=1;" parent="1" vertex="1">
          <mxGeometry x="150" y="150" width="120" height="60" as="geometry" />
        </mxCell>
        <mxCell id="hojOeQdqw5OnuqmnyD28-2" value="PRODUCTO" style="rounded=0;whiteSpace=wrap;html=1;" parent="1" vertex="1">
          <mxGeometry x="160" y="390" width="120" height="60" as="geometry" />
        </mxCell>
        <mxCell id="hojOeQdqw5OnuqmnyD28-3" value="EMPLEADO" style="rounded=0;whiteSpace=wrap;html=1;" parent="1" vertex="1">
          <mxGeometry x="580" y="620" width="120" height="60" as="geometry" />
        </mxCell>
        <mxCell id="hojOeQdqw5OnuqmnyD28-4" value="MESA" style="rounded=0;whiteSpace=wrap;html=1;" parent="1" vertex="1">
          <mxGeometry x="570" y="150" width="120" height="60" as="geometry" />
        </mxCell>
        <mxCell id="hojOeQdqw5OnuqmnyD28-5" value="COMANDA" style="rounded=0;whiteSpace=wrap;html=1;" parent="1" vertex="1">
          <mxGeometry x="570" y="390" width="120" height="60" as="geometry" />
        </mxCell>
        <mxCell id="hojOeQdqw5OnuqmnyD28-6" value="contiene" style="rhombus;whiteSpace=wrap;html=1;" parent="1" vertex="1">
          <mxGeometry x="170" y="260" width="80" height="80" as="geometry" />
        </mxCell>
        <mxCell id="hojOeQdqw5OnuqmnyD28-7" value="contiene" style="rhombus;whiteSpace=wrap;html=1;" parent="1" vertex="1">
          <mxGeometry x="400" y="380" width="80" height="80" as="geometry" />
        </mxCell>
        <mxCell id="hojOeQdqw5OnuqmnyD28-8" value="asignado a" style="rhombus;whiteSpace=wrap;html=1;" parent="1" vertex="1">
          <mxGeometry x="590" y="260" width="80" height="80" as="geometry" />
        </mxCell>
        <mxCell id="hojOeQdqw5OnuqmnyD28-9" value="asignado a" style="rhombus;whiteSpace=wrap;html=1;" parent="1" vertex="1">
          <mxGeometry x="600" y="500" width="80" height="80" as="geometry" />
        </mxCell>
        <mxCell id="hojOeQdqw5OnuqmnyD28-10" value="" style="endArrow=classic;html=1;rounded=0;entryX=0;entryY=0.5;entryDx=0;entryDy=0;" parent="1" target="hojOeQdqw5OnuqmnyD28-7" edge="1">
          <mxGeometry width="50" height="50" relative="1" as="geometry">
            <mxPoint x="280" y="420" as="sourcePoint" />
            <mxPoint x="330" y="370" as="targetPoint" />
          </mxGeometry>
        </mxCell>
        <mxCell id="hojOeQdqw5OnuqmnyD28-17" style="edgeStyle=orthogonalEdgeStyle;rounded=0;orthogonalLoop=1;jettySize=auto;html=1;" parent="1" edge="1">
          <mxGeometry relative="1" as="geometry">
            <mxPoint x="629.5" y="390" as="sourcePoint" />
            <mxPoint x="629.5" y="340" as="targetPoint" />
          </mxGeometry>
        </mxCell>
        <mxCell id="hojOeQdqw5OnuqmnyD28-18" style="edgeStyle=orthogonalEdgeStyle;rounded=0;orthogonalLoop=1;jettySize=auto;html=1;" parent="1" edge="1">
          <mxGeometry relative="1" as="geometry">
            <mxPoint x="629.5" y="260" as="sourcePoint" />
            <mxPoint x="629.5" y="210" as="targetPoint" />
          </mxGeometry>
        </mxCell>
        <mxCell id="hojOeQdqw5OnuqmnyD28-19" value="" style="endArrow=classic;html=1;rounded=0;entryX=0.5;entryY=1;entryDx=0;entryDy=0;" parent="1" target="hojOeQdqw5OnuqmnyD28-1" edge="1">
          <mxGeometry width="50" height="50" relative="1" as="geometry">
            <mxPoint x="210" y="260" as="sourcePoint" />
            <mxPoint x="260" y="210" as="targetPoint" />
          </mxGeometry>
        </mxCell>
        <mxCell id="hojOeQdqw5OnuqmnyD28-20" value="" style="endArrow=classic;html=1;rounded=0;entryX=0.5;entryY=1;entryDx=0;entryDy=0;" parent="1" edge="1">
          <mxGeometry width="50" height="50" relative="1" as="geometry">
            <mxPoint x="209.5" y="390" as="sourcePoint" />
            <mxPoint x="209.5" y="340" as="targetPoint" />
          </mxGeometry>
        </mxCell>
        <mxCell id="hojOeQdqw5OnuqmnyD28-21" value="M:1" style="ellipse;whiteSpace=wrap;html=1;aspect=fixed;fillColor=#fff2cc;strokeColor=#d6b656;" parent="1" vertex="1">
          <mxGeometry x="710" y="520" width="40" height="40" as="geometry" />
        </mxCell>
        <mxCell id="hojOeQdqw5OnuqmnyD28-24" value="" style="endArrow=classic;html=1;rounded=0;entryX=0;entryY=0.492;entryDx=0;entryDy=0;entryPerimeter=0;" parent="1" target="hojOeQdqw5OnuqmnyD28-5" edge="1">
          <mxGeometry width="50" height="50" relative="1" as="geometry">
            <mxPoint x="480" y="419.5" as="sourcePoint" />
            <mxPoint x="560" y="419.5" as="targetPoint" />
          </mxGeometry>
        </mxCell>
        <mxCell id="hojOeQdqw5OnuqmnyD28-25" value="" style="endArrow=classic;html=1;rounded=0;" parent="1" edge="1">
          <mxGeometry width="50" height="50" relative="1" as="geometry">
            <mxPoint x="639.5" y="450" as="sourcePoint" />
            <mxPoint x="640" y="500" as="targetPoint" />
          </mxGeometry>
        </mxCell>
        <mxCell id="hojOeQdqw5OnuqmnyD28-26" value="" style="endArrow=classic;html=1;rounded=0;entryX=0.5;entryY=0;entryDx=0;entryDy=0;" parent="1" target="hojOeQdqw5OnuqmnyD28-3" edge="1">
          <mxGeometry width="50" height="50" relative="1" as="geometry">
            <mxPoint x="639.5" y="580" as="sourcePoint" />
            <mxPoint x="640" y="610" as="targetPoint" />
          </mxGeometry>
        </mxCell>
        <mxCell id="hojOeQdqw5OnuqmnyD28-29" value="M:1" style="ellipse;whiteSpace=wrap;html=1;aspect=fixed;fillColor=#fff2cc;strokeColor=#d6b656;" parent="1" vertex="1">
          <mxGeometry x="700" y="280" width="40" height="40" as="geometry" />
        </mxCell>
        <mxCell id="hojOeQdqw5OnuqmnyD28-30" value="M:M" style="ellipse;whiteSpace=wrap;html=1;aspect=fixed;fillColor=#fff2cc;strokeColor=#d6b656;" parent="1" vertex="1">
          <mxGeometry x="420" y="330" width="40" height="40" as="geometry" />
        </mxCell>
        <mxCell id="hojOeQdqw5OnuqmnyD28-31" value="M:M" style="ellipse;whiteSpace=wrap;html=1;aspect=fixed;fillColor=#fff2cc;strokeColor=#d6b656;" parent="1" vertex="1">
          <mxGeometry x="100" y="280" width="40" height="40" as="geometry" />
        </mxCell>
        <mxCell id="hojOeQdqw5OnuqmnyD28-33" value="id_producto" style="ellipse;whiteSpace=wrap;html=1;aspect=fixed;fillColor=#f8cecc;strokeColor=#b85450;" parent="1" vertex="1">
          <mxGeometry x="20" y="380" width="60" height="60" as="geometry" />
        </mxCell>
        <mxCell id="hojOeQdqw5OnuqmnyD28-34" value="tipo" style="ellipse;whiteSpace=wrap;html=1;aspect=fixed;" parent="1" vertex="1">
          <mxGeometry x="30" y="450" width="60" height="60" as="geometry" />
        </mxCell>
        <mxCell id="hojOeQdqw5OnuqmnyD28-35" value="nombre" style="ellipse;whiteSpace=wrap;html=1;aspect=fixed;" parent="1" vertex="1">
          <mxGeometry x="50" y="525" width="60" height="60" as="geometry" />
        </mxCell>
        <mxCell id="hojOeQdqw5OnuqmnyD28-36" value="descripción" style="ellipse;whiteSpace=wrap;html=1;aspect=fixed;" parent="1" vertex="1">
          <mxGeometry x="130" y="555" width="60" height="60" as="geometry" />
        </mxCell>
        <mxCell id="hojOeQdqw5OnuqmnyD28-37" value="id_mesa" style="ellipse;whiteSpace=wrap;html=1;aspect=fixed;fillColor=#f8cecc;strokeColor=#b85450;" parent="1" vertex="1">
          <mxGeometry x="520" y="40" width="60" height="60" as="geometry" />
        </mxCell>
        <mxCell id="hojOeQdqw5OnuqmnyD28-38" value="tipo" style="ellipse;whiteSpace=wrap;html=1;aspect=fixed;" parent="1" vertex="1">
          <mxGeometry x="220" y="40" width="60" height="60" as="geometry" />
        </mxCell>
        <mxCell id="hojOeQdqw5OnuqmnyD28-39" value="nombre" style="ellipse;whiteSpace=wrap;html=1;aspect=fixed;" parent="1" vertex="1">
          <mxGeometry x="130" y="50" width="60" height="60" as="geometry" />
        </mxCell>
        <mxCell id="hojOeQdqw5OnuqmnyD28-40" value="id_ingrediente" style="ellipse;whiteSpace=wrap;html=1;aspect=fixed;fillColor=#f8cecc;strokeColor=#b85450;" parent="1" vertex="1">
          <mxGeometry x="60" y="120" width="60" height="60" as="geometry" />
        </mxCell>
        <mxCell id="hojOeQdqw5OnuqmnyD28-41" value="capacidad" style="ellipse;whiteSpace=wrap;html=1;aspect=fixed;" parent="1" vertex="1">
          <mxGeometry x="610" y="10" width="60" height="60" as="geometry" />
        </mxCell>
        <mxCell id="hojOeQdqw5OnuqmnyD28-42" value="id_empleado" style="ellipse;whiteSpace=wrap;html=1;aspect=fixed;fillColor=#f8cecc;strokeColor=#b85450;" parent="1" vertex="1">
          <mxGeometry x="540" y="720" width="60" height="60" as="geometry" />
        </mxCell>
        <mxCell id="hojOeQdqw5OnuqmnyD28-43" value="descripción" style="ellipse;whiteSpace=wrap;html=1;aspect=fixed;" parent="1" vertex="1">
          <mxGeometry x="740" y="440" width="60" height="60" as="geometry" />
        </mxCell>
        <mxCell id="hojOeQdqw5OnuqmnyD28-44" value="id_comanda" style="ellipse;whiteSpace=wrap;html=1;aspect=fixed;fillColor=#f8cecc;strokeColor=#b85450;" parent="1" vertex="1">
          <mxGeometry x="740" y="360" width="60" height="60" as="geometry" />
        </mxCell>
        <mxCell id="hojOeQdqw5OnuqmnyD28-45" value="nombre" style="ellipse;whiteSpace=wrap;html=1;aspect=fixed;" parent="1" vertex="1">
          <mxGeometry x="620" y="780" width="60" height="60" as="geometry" />
        </mxCell>
        <mxCell id="hojOeQdqw5OnuqmnyD28-46" value="dirección" style="ellipse;whiteSpace=wrap;html=1;aspect=fixed;" parent="1" vertex="1">
          <mxGeometry x="690" y="720" width="60" height="60" as="geometry" />
        </mxCell>
        <mxCell id="hojOeQdqw5OnuqmnyD28-47" value="precio" style="ellipse;whiteSpace=wrap;html=1;aspect=fixed;" parent="1" vertex="1">
          <mxGeometry x="200" y="570" width="60" height="60" as="geometry" />
        </mxCell>
        <mxCell id="hojOeQdqw5OnuqmnyD28-48" value="ubicación" style="ellipse;whiteSpace=wrap;html=1;aspect=fixed;" parent="1" vertex="1">
          <mxGeometry x="700" y="40" width="60" height="60" as="geometry" />
        </mxCell>
        <mxCell id="2ryKNtpeke1s1Nkz_egi-8" value="" style="endArrow=none;html=1;rounded=0;exitX=0.767;exitY=1.033;exitDx=0;exitDy=0;exitPerimeter=0;" parent="1" source="hojOeQdqw5OnuqmnyD28-39" edge="1">
          <mxGeometry relative="1" as="geometry">
            <mxPoint x="210" y="270" as="sourcePoint" />
            <mxPoint x="200" y="150" as="targetPoint" />
          </mxGeometry>
        </mxCell>
        <mxCell id="2ryKNtpeke1s1Nkz_egi-9" value="" style="endArrow=none;html=1;rounded=0;entryX=1;entryY=1;entryDx=0;entryDy=0;exitX=-0.008;exitY=0.633;exitDx=0;exitDy=0;exitPerimeter=0;" parent="1" source="hojOeQdqw5OnuqmnyD28-1" target="hojOeQdqw5OnuqmnyD28-40" edge="1">
          <mxGeometry relative="1" as="geometry">
            <mxPoint x="210" y="270" as="sourcePoint" />
            <mxPoint x="370" y="270" as="targetPoint" />
          </mxGeometry>
        </mxCell>
        <mxCell id="2ryKNtpeke1s1Nkz_egi-10" value="" style="endArrow=none;html=1;rounded=0;exitX=0.5;exitY=1;exitDx=0;exitDy=0;entryX=0.683;entryY=-0.05;entryDx=0;entryDy=0;entryPerimeter=0;" parent="1" source="hojOeQdqw5OnuqmnyD28-38" target="hojOeQdqw5OnuqmnyD28-1" edge="1">
          <mxGeometry relative="1" as="geometry">
            <mxPoint x="186" y="122" as="sourcePoint" />
            <mxPoint x="210" y="160" as="targetPoint" />
          </mxGeometry>
        </mxCell>
        <mxCell id="osHkW2qokm-9gbcF4059-1" value="" style="endArrow=none;html=1;rounded=0;entryX=0.5;entryY=1;entryDx=0;entryDy=0;exitX=0.5;exitY=0;exitDx=0;exitDy=0;" edge="1" parent="1" source="hojOeQdqw5OnuqmnyD28-47" target="hojOeQdqw5OnuqmnyD28-2">
          <mxGeometry width="50" height="50" relative="1" as="geometry">
            <mxPoint x="390" y="570" as="sourcePoint" />
            <mxPoint x="440" y="520" as="targetPoint" />
          </mxGeometry>
        </mxCell>
        <mxCell id="osHkW2qokm-9gbcF4059-2" value="" style="endArrow=none;html=1;rounded=0;exitX=0.5;exitY=0;exitDx=0;exitDy=0;" edge="1" parent="1" source="hojOeQdqw5OnuqmnyD28-36">
          <mxGeometry width="50" height="50" relative="1" as="geometry">
            <mxPoint x="390" y="570" as="sourcePoint" />
            <mxPoint x="220" y="450" as="targetPoint" />
          </mxGeometry>
        </mxCell>
        <mxCell id="osHkW2qokm-9gbcF4059-3" value="" style="endArrow=none;html=1;rounded=0;exitX=1;exitY=0;exitDx=0;exitDy=0;" edge="1" parent="1" source="hojOeQdqw5OnuqmnyD28-35">
          <mxGeometry width="50" height="50" relative="1" as="geometry">
            <mxPoint x="390" y="570" as="sourcePoint" />
            <mxPoint x="220" y="450" as="targetPoint" />
          </mxGeometry>
        </mxCell>
        <mxCell id="osHkW2qokm-9gbcF4059-4" value="" style="endArrow=none;html=1;rounded=0;entryX=1;entryY=0.5;entryDx=0;entryDy=0;exitX=0;exitY=0.5;exitDx=0;exitDy=0;" edge="1" parent="1" source="hojOeQdqw5OnuqmnyD28-2" target="hojOeQdqw5OnuqmnyD28-33">
          <mxGeometry width="50" height="50" relative="1" as="geometry">
            <mxPoint x="390" y="570" as="sourcePoint" />
            <mxPoint x="440" y="520" as="targetPoint" />
          </mxGeometry>
        </mxCell>
        <mxCell id="osHkW2qokm-9gbcF4059-5" value="" style="endArrow=none;html=1;rounded=0;entryX=1;entryY=0.5;entryDx=0;entryDy=0;exitX=-0.008;exitY=0.617;exitDx=0;exitDy=0;exitPerimeter=0;" edge="1" parent="1" source="hojOeQdqw5OnuqmnyD28-2" target="hojOeQdqw5OnuqmnyD28-34">
          <mxGeometry width="50" height="50" relative="1" as="geometry">
            <mxPoint x="390" y="570" as="sourcePoint" />
            <mxPoint x="440" y="520" as="targetPoint" />
          </mxGeometry>
        </mxCell>
        <mxCell id="osHkW2qokm-9gbcF4059-6" value="" style="endArrow=none;html=1;rounded=0;entryX=1;entryY=1;entryDx=0;entryDy=0;exitX=0.5;exitY=0;exitDx=0;exitDy=0;" edge="1" parent="1" source="hojOeQdqw5OnuqmnyD28-4" target="hojOeQdqw5OnuqmnyD28-37">
          <mxGeometry width="50" height="50" relative="1" as="geometry">
            <mxPoint x="390" y="570" as="sourcePoint" />
            <mxPoint x="440" y="520" as="targetPoint" />
          </mxGeometry>
        </mxCell>
        <mxCell id="osHkW2qokm-9gbcF4059-7" value="" style="endArrow=none;html=1;rounded=0;entryX=0.5;entryY=1;entryDx=0;entryDy=0;exitX=0.5;exitY=0;exitDx=0;exitDy=0;" edge="1" parent="1" source="hojOeQdqw5OnuqmnyD28-4" target="hojOeQdqw5OnuqmnyD28-41">
          <mxGeometry width="50" height="50" relative="1" as="geometry">
            <mxPoint x="390" y="570" as="sourcePoint" />
            <mxPoint x="440" y="520" as="targetPoint" />
          </mxGeometry>
        </mxCell>
        <mxCell id="osHkW2qokm-9gbcF4059-8" value="" style="endArrow=none;html=1;rounded=0;entryX=0;entryY=1;entryDx=0;entryDy=0;exitX=0.5;exitY=0;exitDx=0;exitDy=0;" edge="1" parent="1" source="hojOeQdqw5OnuqmnyD28-4" target="hojOeQdqw5OnuqmnyD28-48">
          <mxGeometry width="50" height="50" relative="1" as="geometry">
            <mxPoint x="390" y="570" as="sourcePoint" />
            <mxPoint x="440" y="520" as="targetPoint" />
          </mxGeometry>
        </mxCell>
        <mxCell id="osHkW2qokm-9gbcF4059-9" value="" style="endArrow=none;html=1;rounded=0;entryX=0;entryY=0.5;entryDx=0;entryDy=0;exitX=1;exitY=0.5;exitDx=0;exitDy=0;" edge="1" parent="1" source="hojOeQdqw5OnuqmnyD28-5" target="hojOeQdqw5OnuqmnyD28-44">
          <mxGeometry width="50" height="50" relative="1" as="geometry">
            <mxPoint x="390" y="570" as="sourcePoint" />
            <mxPoint x="440" y="520" as="targetPoint" />
          </mxGeometry>
        </mxCell>
        <mxCell id="osHkW2qokm-9gbcF4059-10" value="" style="endArrow=none;html=1;rounded=0;entryX=0;entryY=0;entryDx=0;entryDy=0;exitX=1;exitY=0.5;exitDx=0;exitDy=0;" edge="1" parent="1" source="hojOeQdqw5OnuqmnyD28-5" target="hojOeQdqw5OnuqmnyD28-43">
          <mxGeometry width="50" height="50" relative="1" as="geometry">
            <mxPoint x="390" y="570" as="sourcePoint" />
            <mxPoint x="440" y="520" as="targetPoint" />
          </mxGeometry>
        </mxCell>
        <mxCell id="osHkW2qokm-9gbcF4059-11" value="" style="endArrow=none;html=1;rounded=0;entryX=0.5;entryY=1;entryDx=0;entryDy=0;exitX=1;exitY=0;exitDx=0;exitDy=0;" edge="1" parent="1" source="hojOeQdqw5OnuqmnyD28-42" target="hojOeQdqw5OnuqmnyD28-3">
          <mxGeometry width="50" height="50" relative="1" as="geometry">
            <mxPoint x="390" y="570" as="sourcePoint" />
            <mxPoint x="440" y="520" as="targetPoint" />
          </mxGeometry>
        </mxCell>
        <mxCell id="osHkW2qokm-9gbcF4059-12" value="" style="endArrow=none;html=1;rounded=0;entryX=0.5;entryY=1;entryDx=0;entryDy=0;exitX=0.5;exitY=0;exitDx=0;exitDy=0;" edge="1" parent="1" source="hojOeQdqw5OnuqmnyD28-45" target="hojOeQdqw5OnuqmnyD28-3">
          <mxGeometry width="50" height="50" relative="1" as="geometry">
            <mxPoint x="390" y="570" as="sourcePoint" />
            <mxPoint x="440" y="520" as="targetPoint" />
          </mxGeometry>
        </mxCell>
        <mxCell id="osHkW2qokm-9gbcF4059-13" value="" style="endArrow=none;html=1;rounded=0;entryX=0.5;entryY=1;entryDx=0;entryDy=0;exitX=0;exitY=0;exitDx=0;exitDy=0;" edge="1" parent="1" source="hojOeQdqw5OnuqmnyD28-46" target="hojOeQdqw5OnuqmnyD28-3">
          <mxGeometry width="50" height="50" relative="1" as="geometry">
            <mxPoint x="390" y="570" as="sourcePoint" />
            <mxPoint x="440" y="520" as="targetPoint" />
          </mxGeometry>
        </mxCell>
      </root>
    </mxGraphModel>
  </diagram>
</mxfile>
